<svg xmlns="http://www.w3.org/2000/svg" width="500" height="500" viewBox="0 0 500 500"><rect width="100%" height="100%" fill="#DDDDDD"/><path fill="#999999" d="M128.265 281.56h-23.01v-59.72h20.18q10.54 0 16.45 4.1 5.9 4.1 5.9 12.27 0 4.14-2.19 7.4-2.2 3.26-6.38 4.9 5.37 1.15 8.06 4.92 2.69 3.78 2.69 8.74 0 8.57-5.66 12.98t-16.04 4.41Zm.9-26.41h-11.93v17.22h11.03q4.76 0 7.26-2.07t2.5-6.13q0-4.39-2.13-6.71-2.13-2.31-6.73-2.31Zm-11.93-24.08v15.79h8.61q4.8 0 7.38-1.97 2.59-1.97 2.59-5.74 0-4.14-2.61-6.11-2.6-1.97-7.77-1.97h-8.2Zm65.54 5.78-1.27 10.63-4.39-.13q-2.67 0-4.39 1.11-1.72 1.11-2.62 3.12v29.98h-11.94v-44.38h11.12l.53 6.56q1.56-3.48 4.04-5.43 2.48-1.95 5.72-1.95.9 0 1.66.14.76.15 1.54.35Zm24.44 45.57q-9.59 0-15.34-6.15-5.74-6.15-5.74-15.63V259q0-9.88 5.44-16.28 5.43-6.4 14.58-6.36 8.98 0 13.94 5.41 4.97 5.42 4.97 14.65v6.52h-26.5l-.08.24q.33 4.39 2.93 7.22 2.61 2.83 7.08 2.83 3.97 0 6.6-.8 2.62-.8 5.74-2.52l3.24 7.38q-2.7 2.22-7.09 3.68-4.39 1.45-9.77 1.45Zm-1.06-36.83q-3.32 0-5.25 2.54-1.93 2.55-2.38 6.69l.12.2h14.69v-1.06q0-3.82-1.79-6.09-1.78-2.28-5.39-2.28Zm56.11-8.41 8.36 28.51h.25l5.78-28.51h11.24l-11.28 44.38h-10l-8.25-26.41h-.24l-8.25 26.41h-9.97l-11.28-44.38h11.24l5.87 28.42h.24l8.29-28.42h8Zm55.57 32.16q0-1.97-1.9-3.41-1.91-1.43-7.08-2.54-7.87-1.6-11.87-4.74-4-3.13-4-8.55 0-5.74 4.82-9.74t12.9-4q8.49 0 13.51 3.98 5.03 3.98 4.82 10.05l-.08.24h-11.57q0-2.66-1.7-4.34-1.7-1.69-4.98-1.69-2.91 0-4.58 1.42-1.66 1.41-1.66 3.55 0 2.05 1.75 3.36 1.74 1.31 7.07 2.34 8.2 1.64 12.18 4.82 3.98 3.18 3.98 8.76 0 5.98-5.13 9.78-5.12 3.79-13.53 3.79-8.86 0-14.01-4.49t-4.9-10.23l.08-.25h10.95q.13 3.57 2.34 5.17 2.22 1.6 5.79 1.6 3.32 0 5.06-1.31 1.74-1.32 1.74-3.57Zm46.84 12.22-12.26-18.58h-3.28v18.58h-11.98v-63.98h11.98v36.29h2.95l10.3-16.69h13.86l-14.19 20.1 16.36 24.28h-13.74Zm30.07-44.38v44.38h-11.98v-44.38h11.98Zm0-19.6v8.98h-11.98v-8.98h11.98Z"/></svg>